<svg xmlns="http://www.w3.org/2000/svg" viewBox="0 0 32 32" width="32" height="32">
  <defs>
    <linearGradient id="nexusFavGradient" x1="0%" y1="0%" x2="100%" y2="100%">
      <stop offset="0%" style="stop-color:#667eea;stop-opacity:1" />
      <stop offset="50%" style="stop-color:#764ba2;stop-opacity:1" />
      <stop offset="100%" style="stop-color:#f093fb;stop-opacity:1" />
    </linearGradient>
    <linearGradient id="centerFavGradient" x1="0%" y1="0%" x2="100%" y2="100%">
      <stop offset="0%" style="stop-color:#4facfe;stop-opacity:1" />
      <stop offset="100%" style="stop-color:#00f2fe;stop-opacity:1" />
    </linearGradient>
  </defs>
  
  <!-- Outer Ring -->
  <circle cx="16" cy="16" r="14" fill="none" stroke="url(#nexusFavGradient)" stroke-width="2"/>
  
  <!-- Connection Lines -->
  <g stroke="url(#nexusFavGradient)" stroke-width="1" opacity="0.6">
    <line x1="6" y1="16" x2="26" y2="16"/>
    <line x1="16" y1="6" x2="16" y2="26"/>
    <line x1="9" y1="9" x2="23" y2="23"/>
    <line x1="23" y1="9" x2="9" y2="23"/>
  </g>
  
  <!-- Connection Nodes -->
  <g fill="url(#centerFavGradient)">
    <circle cx="16" cy="6" r="1.5"/>
    <circle cx="26" cy="16" r="1.5"/>
    <circle cx="16" cy="26" r="1.5"/>
    <circle cx="6" cy="16" r="1.5"/>
    <circle cx="9" cy="9" r="1"/>
    <circle cx="23" cy="9" r="1"/>
    <circle cx="23" cy="23" r="1"/>
    <circle cx="9" cy="23" r="1"/>
  </g>
  
  <!-- Central Core -->
  <circle cx="16" cy="16" r="4" fill="url(#centerFavGradient)"/>
  
  <!-- N Symbol -->
  <path d="M13 13 L13 19 L14 19 L14 15 L18 19 L19 19 L19 13 L18 13 L18 17 L14 13 Z" fill="white"/>
</svg>