<svg xmlns="http://www.w3.org/2000/svg" viewBox="0 0 200 200" width="200" height="200">
  <defs>
    <linearGradient id="nexusGradient" x1="0%" y1="0%" x2="100%" y2="100%">
      <stop offset="0%" style="stop-color:#667eea;stop-opacity:1" />
      <stop offset="50%" style="stop-color:#764ba2;stop-opacity:1" />
      <stop offset="100%" style="stop-color:#f093fb;stop-opacity:1" />
    </linearGradient>
    <linearGradient id="centerGradient" x1="0%" y1="0%" x2="100%" y2="100%">
      <stop offset="0%" style="stop-color:#4facfe;stop-opacity:1" />
      <stop offset="100%" style="stop-color:#00f2fe;stop-opacity:1" />
    </linearGradient>
    <filter id="glow">
      <feGaussianBlur stdDeviation="3" result="coloredBlur"/>
      <feMerge> 
        <feMergeNode in="coloredBlur"/>
        <feMergeNode in="SourceGraphic"/>
      </feMerge>
    </filter>
  </defs>
  
  <!-- Outer Ring -->
  <circle cx="100" cy="100" r="90" fill="none" stroke="url(#nexusGradient)" stroke-width="8" opacity="0.8"/>
  
  <!-- Connection Lines -->
  <g stroke="url(#nexusGradient)" stroke-width="3" opacity="0.6">
    <!-- Horizontal -->
    <line x1="30" y1="100" x2="170" y2="100"/>
    <!-- Vertical -->
    <line x1="100" y1="30" x2="100" y2="170"/>
    <!-- Diagonal -->
    <line x1="45" y1="45" x2="155" y2="155"/>
    <line x1="155" y1="45" x2="45" y2="155"/>
  </g>
  
  <!-- Connection Nodes -->
  <g fill="url(#centerGradient)" filter="url(#glow)">
    <circle cx="100" cy="30" r="8"/>
    <circle cx="170" cy="100" r="8"/>
    <circle cx="100" cy="170" r="8"/>
    <circle cx="30" cy="100" r="8"/>
    <circle cx="45" cy="45" r="6"/>
    <circle cx="155" cy="45" r="6"/>
    <circle cx="155" cy="155" r="6"/>
    <circle cx="45" cy="155" r="6"/>
  </g>
  
  <!-- Central Core -->
  <circle cx="100" cy="100" r="25" fill="url(#centerGradient)" filter="url(#glow)"/>
  
  <!-- Inner Symbol -->
  <g fill="white" opacity="0.9">
    <!-- N -->
    <path d="M85 85 L85 115 L90 115 L90 95 L110 115 L115 115 L115 85 L110 85 L110 105 L90 85 Z"/>
  </g>
</svg>